<svg width="32" height="32" viewBox="0 0 32 32" fill="none" xmlns="http://www.w3.org/2000/svg">
<path fill-rule="evenodd" clip-rule="evenodd" d="M9.94444 3.26455H5C4.44772 3.26455 4 3.71226 4 4.26455V30.5714C4 31.1237 4.44772 31.5714 5 31.5714H26.7778C27.3301 31.5714 27.7778 31.1237 27.7778 30.5714V4.26455C27.7778 3.71226 27.3301 3.26455 26.7778 3.26455H21.8333V5.98236C21.8333 7.08693 20.9379 7.98236 19.8333 7.98236H11.9444C10.8399 7.98236 9.94444 7.08693 9.94444 5.98236V3.26455ZM8.28654 13.044C8.10679 13.2274 8.10679 13.5209 8.28654 13.7043L10.6049 16.07L15.5653 11.0084C15.7451 10.825 15.7451 10.5315 15.5653 10.3481V10.3481C15.3803 10.1593 15.0764 10.1593 14.8915 10.3481L10.6049 14.7221L8.96037 13.044C8.77541 12.8552 8.4715 12.8552 8.28654 13.044V13.044ZM10.6049 21.4618L8.29321 19.1029C8.11082 18.9168 8.11082 18.6151 8.29321 18.4289C8.4756 18.2428 8.77131 18.2428 8.9537 18.4289L10.6049 20.1139L14.8981 15.7331C15.0805 15.5469 15.3763 15.5469 15.5586 15.7331C15.741 15.9192 15.741 16.2209 15.5586 16.407L10.6049 21.4618ZM8.29321 24.4947L10.6049 26.8536L15.5586 21.7988C15.741 21.6127 15.741 21.311 15.5586 21.1248C15.3763 20.9387 15.0805 20.9387 14.8981 21.1248L10.6049 25.5057L8.9537 23.8207C8.77131 23.6346 8.4756 23.6346 8.29321 23.8207C8.11082 24.0068 8.11082 24.3086 8.29321 24.4947ZM25.7963 13.3741C25.7963 13.0019 25.4945 12.7002 25.1223 12.7002H19.2048C18.8326 12.7002 18.5309 13.0019 18.5309 13.3741V13.3741C18.5309 13.7464 18.8326 14.0481 19.2048 14.0481H25.1223C25.4945 14.0481 25.7963 13.7464 25.7963 13.3741V13.3741ZM19.1914 23.1468H25.1358C25.5006 23.1468 25.7963 23.4485 25.7963 23.8207C25.7963 24.193 25.5006 24.4947 25.1358 24.4947H19.1914C18.8266 24.4947 18.5309 24.193 18.5309 23.8207C18.5309 23.4485 18.8266 23.1468 19.1914 23.1468ZM25.1358 17.755H19.1914C18.8266 17.755 18.5309 18.0567 18.5309 18.4289C18.5309 18.8012 18.8266 19.1029 19.1914 19.1029H25.1358C25.5006 19.1029 25.7963 18.8012 25.7963 18.4289C25.7963 18.0567 25.5006 17.755 25.1358 17.755Z" fill="white"/>
<path d="M11.9259 2.41534H14.5679C14.5679 2.41534 14.5679 1 15.8889 1C17.2099 1 17.2099 2.41534 17.2099 2.41534C18.4996 2.41534 19.8519 2.41534 19.8519 2.41534V6.66138H11.9259V2.41534Z" fill="white"/>
</svg>
